<?xml version="1.0" standalone="no"?>
<!DOCTYPE svg PUBLIC "-//W3C//DTD SVG 20010904//EN"
 "http://www.w3.org/TR/2001/REC-SVG-20010904/DTD/svg10.dtd">
<svg version="1.0" xmlns="http://www.w3.org/2000/svg"
 width="500.000000pt" height="500.000000pt" viewBox="0 0 500.000000 500.000000"
 preserveAspectRatio="xMidYMid meet">
<metadata>
Created by potrace 1.11, written by Peter Selinger 2001-2013
</metadata>
<g transform="translate(0.000000,500.000000) scale(0.100000,-0.100000)"
fill="#000000" stroke="none">
<path d="M181 4469 c-76 -22 -148 -90 -169 -160 -4 -13 -7 -829 -7 -1814 l0
-1790 23 -44 c28 -52 62 -85 117 -114 l40 -22 2300 -1 c2220 -1 2302 0 2351
18 57 20 113 71 141 127 17 34 18 119 21 1816 2 1982 7 1836 -67 1912 -20 21
-55 48 -76 58 -39 20 -77 20 -2340 22 -1464 1 -2312 -2 -2334 -8z"/>
</g>
</svg>
